<mxfile host="app.diagrams.net" agent="Mozilla/5.0 (Macintosh; Intel Mac OS X 10.15; rv:130.0) Gecko/20100101 Firefox/130.0" version="24.7.14">
  <diagram name="Page-1" id="RugzsWfEhtau8Z7cxlo9">
    <mxGraphModel dx="1912" dy="1220" grid="1" gridSize="10" guides="1" tooltips="1" connect="1" arrows="1" fold="1" page="1" pageScale="1" pageWidth="900" pageHeight="1600" math="0" shadow="0">
      <root>
        <mxCell id="0" />
        <mxCell id="1" parent="0" />
        <mxCell id="jbkahnUD-mbLNmwx1Zta-57" value="" style="rounded=0;whiteSpace=wrap;html=1;fillColor=#F7F7F7;" parent="1" vertex="1">
          <mxGeometry y="150" width="900" height="870" as="geometry" />
        </mxCell>
        <mxCell id="0M9Q6CRTGLy5f0tpIuAF-15" value="" style="ellipse;whiteSpace=wrap;html=1;aspect=fixed;fillColor=#CCFFFF;" parent="1" vertex="1">
          <mxGeometry x="72" y="260" width="50" height="50" as="geometry" />
        </mxCell>
        <mxCell id="jbkahnUD-mbLNmwx1Zta-58" value="" style="rounded=0;whiteSpace=wrap;html=1;" parent="1" vertex="1">
          <mxGeometry y="1020" width="900" height="110" as="geometry" />
        </mxCell>
        <mxCell id="jbkahnUD-mbLNmwx1Zta-56" value="" style="rounded=1;whiteSpace=wrap;html=1;arcSize=0;" parent="1" vertex="1">
          <mxGeometry width="900" height="150" as="geometry" />
        </mxCell>
        <mxCell id="jbkahnUD-mbLNmwx1Zta-1" value="" style="shape=image;html=1;verticalAlign=top;verticalLabelPosition=bottom;labelBackgroundColor=#ffffff;imageAspect=0;aspect=fixed;image=https://cdn4.iconfinder.com/data/icons/free-ui-set/200/line_3-24-128.png" parent="1" vertex="1">
          <mxGeometry x="30" width="128" height="128" as="geometry" />
        </mxCell>
        <mxCell id="jbkahnUD-mbLNmwx1Zta-2" value="&lt;font style=&quot;font-size: 28px;&quot;&gt;Calendar&lt;/font&gt;" style="text;html=1;align=center;verticalAlign=middle;whiteSpace=wrap;rounded=0;" parent="1" vertex="1">
          <mxGeometry x="180" y="33.5" width="160" height="61" as="geometry" />
        </mxCell>
        <mxCell id="jbkahnUD-mbLNmwx1Zta-3" value="" style="shape=image;html=1;verticalAlign=top;verticalLabelPosition=bottom;labelBackgroundColor=#ffffff;imageAspect=0;aspect=fixed;image=https://cdn4.iconfinder.com/data/icons/essential-part-2/32/149-Menu-128.png" parent="1" vertex="1">
          <mxGeometry x="750" y="14" width="100" height="100" as="geometry" />
        </mxCell>
        <mxCell id="jbkahnUD-mbLNmwx1Zta-4" value="&lt;div&gt;&lt;font color=&quot;#009999&quot;&gt;&lt;b&gt;2025&lt;/b&gt;&lt;/font&gt;&lt;/div&gt;&lt;div&gt;&lt;font style=&quot;font-size: 20px;&quot; color=&quot;#009999&quot;&gt;&lt;b&gt;November &lt;br&gt;&lt;/b&gt;&lt;/font&gt;&lt;/div&gt;" style="text;html=1;align=left;verticalAlign=middle;whiteSpace=wrap;rounded=0;" parent="1" vertex="1">
          <mxGeometry x="60" y="170" width="180" height="40" as="geometry" />
        </mxCell>
        <mxCell id="jbkahnUD-mbLNmwx1Zta-5" value="&lt;font style=&quot;font-size: 16px;&quot; color=&quot;#007bff&quot;&gt;Calendars&lt;/font&gt;" style="text;html=1;align=center;verticalAlign=middle;whiteSpace=wrap;rounded=0;" parent="1" vertex="1">
          <mxGeometry x="700" y="170" width="120" height="30" as="geometry" />
        </mxCell>
        <mxCell id="jbkahnUD-mbLNmwx1Zta-50" value="" style="shape=image;html=1;verticalAlign=top;verticalLabelPosition=bottom;labelBackgroundColor=#ffffff;imageAspect=0;aspect=fixed;image=https://cdn4.iconfinder.com/data/icons/48-bubbles/48/48.Dashboard-128.png" parent="1" vertex="1">
          <mxGeometry x="60" y="1027.5" width="80" height="80" as="geometry" />
        </mxCell>
        <mxCell id="jbkahnUD-mbLNmwx1Zta-51" value="" style="sketch=0;aspect=fixed;pointerEvents=1;shadow=0;dashed=0;html=1;strokeColor=none;labelPosition=center;verticalLabelPosition=bottom;verticalAlign=top;align=center;fillColor=#00188D;shape=mxgraph.mscae.enterprise.calendar" parent="1" vertex="1">
          <mxGeometry x="250" y="1042.5" width="57.92" height="47.5" as="geometry" />
        </mxCell>
        <mxCell id="jbkahnUD-mbLNmwx1Zta-52" value="" style="shape=image;html=1;verticalAlign=top;verticalLabelPosition=bottom;labelBackgroundColor=#ffffff;imageAspect=0;aspect=fixed;image=https://cdn4.iconfinder.com/data/icons/flat-business-3/512/Flat_business-40-128.png" parent="1" vertex="1">
          <mxGeometry x="424" y="1037" width="53" height="53" as="geometry" />
        </mxCell>
        <mxCell id="jbkahnUD-mbLNmwx1Zta-53" value="" style="html=1;verticalLabelPosition=bottom;align=center;labelBackgroundColor=#ffffff;verticalAlign=top;strokeWidth=2;strokeColor=#0080F0;shadow=0;dashed=0;shape=mxgraph.ios7.icons.bell;" parent="1" vertex="1">
          <mxGeometry x="610" y="1040" width="50" height="50" as="geometry" />
        </mxCell>
        <mxCell id="jbkahnUD-mbLNmwx1Zta-54" value="" style="shape=message;html=1;html=1;outlineConnect=0;labelPosition=center;verticalLabelPosition=bottom;align=center;verticalAlign=top;" parent="1" vertex="1">
          <mxGeometry x="760" y="1040" width="60" height="50" as="geometry" />
        </mxCell>
        <mxCell id="jbkahnUD-mbLNmwx1Zta-59" value="&lt;div style=&quot;font-size: 18px;&quot;&gt;&lt;font style=&quot;font-size: 20px;&quot;&gt;Dashboard&lt;/font&gt;&lt;/div&gt;" style="text;html=1;align=center;verticalAlign=middle;whiteSpace=wrap;rounded=0;" parent="1" vertex="1">
          <mxGeometry x="25" y="1070" width="150" height="70" as="geometry" />
        </mxCell>
        <mxCell id="jbkahnUD-mbLNmwx1Zta-60" value="&lt;div&gt;&lt;font style=&quot;font-size: 20px;&quot;&gt;Calendar&lt;/font&gt;&lt;/div&gt;" style="text;html=1;align=center;verticalAlign=middle;whiteSpace=wrap;rounded=0;" parent="1" vertex="1">
          <mxGeometry x="250" y="1090" width="60" height="30" as="geometry" />
        </mxCell>
        <mxCell id="jbkahnUD-mbLNmwx1Zta-61" value="&lt;font style=&quot;font-size: 20px;&quot;&gt;To Do&lt;br&gt;&lt;/font&gt;" style="text;html=1;align=center;verticalAlign=middle;whiteSpace=wrap;rounded=0;" parent="1" vertex="1">
          <mxGeometry x="420.5" y="1090" width="60" height="30" as="geometry" />
        </mxCell>
        <mxCell id="jbkahnUD-mbLNmwx1Zta-62" value="&lt;font style=&quot;font-size: 20px;&quot;&gt;Notifications&lt;/font&gt;" style="text;html=1;align=center;verticalAlign=middle;whiteSpace=wrap;rounded=0;" parent="1" vertex="1">
          <mxGeometry x="605" y="1090" width="60" height="30" as="geometry" />
        </mxCell>
        <mxCell id="jbkahnUD-mbLNmwx1Zta-63" value="&lt;font style=&quot;font-size: 20px;&quot;&gt;Inbox&lt;/font&gt;" style="text;html=1;align=center;verticalAlign=middle;whiteSpace=wrap;rounded=0;" parent="1" vertex="1">
          <mxGeometry x="760" y="1090" width="60" height="30" as="geometry" />
        </mxCell>
        <mxCell id="0M9Q6CRTGLy5f0tpIuAF-4" value="&lt;div&gt;Sun&lt;/div&gt;&lt;div&gt;&amp;nbsp;&lt;br&gt;&lt;/div&gt;&lt;div&gt;&lt;font style=&quot;font-size: 16px;&quot;&gt;01&lt;/font&gt;&lt;br&gt;&lt;/div&gt;" style="text;html=1;align=center;verticalAlign=middle;whiteSpace=wrap;rounded=0;" parent="1" vertex="1">
          <mxGeometry x="64" y="250" width="66" height="40" as="geometry" />
        </mxCell>
        <mxCell id="0M9Q6CRTGLy5f0tpIuAF-5" value="&lt;div&gt;Sun&lt;/div&gt;&lt;div&gt;&amp;nbsp;&lt;br&gt;&lt;/div&gt;&lt;div&gt;&lt;font style=&quot;font-size: 16px;&quot;&gt;01&lt;/font&gt;&lt;br&gt;&lt;/div&gt;" style="text;html=1;align=center;verticalAlign=middle;whiteSpace=wrap;rounded=0;" parent="1" vertex="1">
          <mxGeometry x="180" y="250" width="66" height="40" as="geometry" />
        </mxCell>
        <mxCell id="0M9Q6CRTGLy5f0tpIuAF-6" value="&lt;div&gt;Sun&lt;/div&gt;&lt;div&gt;&amp;nbsp;&lt;br&gt;&lt;/div&gt;&lt;div&gt;&lt;font style=&quot;font-size: 16px;&quot;&gt;01&lt;/font&gt;&lt;br&gt;&lt;/div&gt;" style="text;html=1;align=center;verticalAlign=middle;whiteSpace=wrap;rounded=0;" parent="1" vertex="1">
          <mxGeometry x="417" y="250" width="66" height="40" as="geometry" />
        </mxCell>
        <mxCell id="0M9Q6CRTGLy5f0tpIuAF-7" value="&lt;div&gt;Sun&lt;/div&gt;&lt;div&gt;&amp;nbsp;&lt;br&gt;&lt;/div&gt;&lt;div&gt;&lt;font style=&quot;font-size: 16px;&quot;&gt;01&lt;/font&gt;&lt;br&gt;&lt;/div&gt;" style="text;html=1;align=center;verticalAlign=middle;whiteSpace=wrap;rounded=0;" parent="1" vertex="1">
          <mxGeometry x="754" y="250" width="66" height="40" as="geometry" />
        </mxCell>
        <mxCell id="0M9Q6CRTGLy5f0tpIuAF-8" value="&lt;div&gt;Sun&lt;/div&gt;&lt;div&gt;&amp;nbsp;&lt;br&gt;&lt;/div&gt;&lt;div&gt;&lt;font style=&quot;font-size: 16px;&quot;&gt;01&lt;/font&gt;&lt;br&gt;&lt;/div&gt;" style="text;html=1;align=center;verticalAlign=middle;whiteSpace=wrap;rounded=0;" parent="1" vertex="1">
          <mxGeometry x="300" y="250" width="66" height="40" as="geometry" />
        </mxCell>
        <mxCell id="0M9Q6CRTGLy5f0tpIuAF-9" value="&lt;div&gt;Sun&lt;/div&gt;&lt;div&gt;&amp;nbsp;&lt;br&gt;&lt;/div&gt;&lt;div&gt;&lt;font style=&quot;font-size: 16px;&quot;&gt;01&lt;/font&gt;&lt;br&gt;&lt;/div&gt;" style="text;html=1;align=center;verticalAlign=middle;whiteSpace=wrap;rounded=0;" parent="1" vertex="1">
          <mxGeometry x="530" y="250" width="66" height="40" as="geometry" />
        </mxCell>
        <mxCell id="0M9Q6CRTGLy5f0tpIuAF-10" value="&lt;div&gt;Sun&lt;/div&gt;&lt;div&gt;&amp;nbsp;&lt;br&gt;&lt;/div&gt;&lt;div&gt;&lt;font style=&quot;font-size: 16px;&quot;&gt;01&lt;/font&gt;&lt;br&gt;&lt;/div&gt;" style="text;html=1;align=center;verticalAlign=middle;whiteSpace=wrap;rounded=0;" parent="1" vertex="1">
          <mxGeometry x="640" y="250" width="66" height="40" as="geometry" />
        </mxCell>
        <mxCell id="0M9Q6CRTGLy5f0tpIuAF-11" value="" style="endArrow=none;html=1;rounded=0;sourcePerimeterSpacing=840;exitX=1;exitY=1;exitDx=0;exitDy=0;entryX=0.003;entryY=0.2;entryDx=0;entryDy=0;entryPerimeter=0;jumpSize=0;" parent="1" edge="1">
          <mxGeometry width="50" height="50" relative="1" as="geometry">
            <mxPoint x="900" y="320" as="sourcePoint" />
            <mxPoint x="4.529709940470639e-14" y="320" as="targetPoint" />
          </mxGeometry>
        </mxCell>
        <mxCell id="0M9Q6CRTGLy5f0tpIuAF-14" value="" style="shape=mxgraph.signs.animals.teddy_bear;html=1;pointerEvents=1;fillColor=#000000;strokeColor=none;verticalLabelPosition=bottom;verticalAlign=top;align=center;" parent="1" vertex="1">
          <mxGeometry x="300" y="430" width="300" height="280" as="geometry" />
        </mxCell>
        <mxCell id="0M9Q6CRTGLy5f0tpIuAF-16" value="&lt;font style=&quot;font-size: 20px;&quot;&gt;No Tasks&amp;nbsp; For today, Enjoy! &lt;/font&gt;" style="text;html=1;align=center;verticalAlign=middle;whiteSpace=wrap;rounded=0;" parent="1" vertex="1">
          <mxGeometry x="315" y="730" width="270" height="110" as="geometry" />
        </mxCell>
        <mxCell id="0M9Q6CRTGLy5f0tpIuAF-18" value="" style="verticalLabelPosition=bottom;verticalAlign=top;html=1;shadow=0;dashed=0;strokeWidth=1;shape=mxgraph.ios.iAddIcon;fillColor=#7AdF78;fillColor2=#1A9917;strokeColor=#ffffff;sketch=0;" parent="1" vertex="1">
          <mxGeometry x="740" y="860" width="80" height="80" as="geometry" />
        </mxCell>
      </root>
    </mxGraphModel>
  </diagram>
</mxfile>
